{
    "asset" : {
        "generator" : "Khronos glTF Blender I/O v3.3.27",
        "version" : "2.0"
    },
    "scene" : 0,
    "scenes" : [
        {
            "name" : "Scene",
            "nodes" : [
                0,
                1
            ]
        }
    ],
    "nodes" : [
        {
            "mesh" : 0,
            "name" : "Cone",
            "scale" : [
                23.800691604614258,
                23.800691604614258,
                23.800691604614258
            ],
            "translation" : [
                0,
                160.0376739501953,
                0
            ]
        },
        {
            "mesh" : 1,
            "name" : "Blades",
            "rotation" : [
                -0.5676581263542175,
                0.44152992963790894,
                -0.4266071021556854,
                0.54847252368927
            ],
            "scale" : [
                32.05134963989258,
                32.05134963989258,
                32.05134963989258
            ],
            "translation" : [
                -3.672358274459839,
                128.9559783935547,
                27.149879455566406
            ]
        }
    ],
    "meshes" : [
        {
            "name" : "Cone",
            "primitives" : [
                {
                    "attributes" : {
                        "POSITION" : 0,
                        "NORMAL" : 1,
                        "TEXCOORD_0" : 2
                    },
                    "indices" : 3
                }
            ]
        },
        {
            "name" : "Plane.002",
            "primitives" : [
                {
                    "attributes" : {
                        "POSITION" : 4,
                        "NORMAL" : 5,
                        "TEXCOORD_0" : 6
                    },
                    "indices" : 7
                }
            ]
        }
    ],
    "accessors" : [
        {
            "bufferView" : 0,
            "componentType" : 5126,
            "count" : 256,
            "max" : [
                1,
                1,
                1
            ],
            "min" : [
                -1.0000001192092896,
                -6.555987358093262,
                -1
            ],
            "type" : "VEC3"
        },
        {
            "bufferView" : 1,
            "componentType" : 5126,
            "count" : 256,
            "type" : "VEC3"
        },
        {
            "bufferView" : 2,
            "componentType" : 5126,
            "count" : 256,
            "type" : "VEC2"
        },
        {
            "bufferView" : 3,
            "componentType" : 5123,
            "count" : 378,
            "type" : "SCALAR"
        },
        {
            "bufferView" : 4,
            "componentType" : 5126,
            "count" : 2056,
            "max" : [
                1.4757955074310303,
                0.5627135038375854,
                2.104815721511841
            ],
            "min" : [
                -2.0433194637298584,
                -0.21156653761863708,
                -1.6743671894073486
            ],
            "type" : "VEC3"
        },
        {
            "bufferView" : 5,
            "componentType" : 5126,
            "count" : 2056,
            "type" : "VEC3"
        },
        {
            "bufferView" : 6,
            "componentType" : 5126,
            "count" : 2056,
            "type" : "VEC2"
        },
        {
            "bufferView" : 7,
            "componentType" : 5123,
            "count" : 2988,
            "type" : "SCALAR"
        }
    ],
    "bufferViews" : [
        {
            "buffer" : 0,
            "byteLength" : 3072,
            "byteOffset" : 0,
            "target" : 34962
        },
        {
            "buffer" : 0,
            "byteLength" : 3072,
            "byteOffset" : 3072,
            "target" : 34962
        },
        {
            "buffer" : 0,
            "byteLength" : 2048,
            "byteOffset" : 6144,
            "target" : 34962
        },
        {
            "buffer" : 0,
            "byteLength" : 756,
            "byteOffset" : 8192,
            "target" : 34963
        },
        {
            "buffer" : 0,
            "byteLength" : 24672,
            "byteOffset" : 8948,
            "target" : 34962
        },
        {
            "buffer" : 0,
            "byteLength" : 24672,
            "byteOffset" : 33620,
            "target" : 34962
        },
        {
            "buffer" : 0,
            "byteLength" : 16448,
            "byteOffset" : 58292,
            "target" : 34962
        },
        {
            "buffer" : 0,
            "byteLength" : 5976,
            "byteOffset" : 74740,
            "target" : 34963
        }
    ],
    "buffers" : [
        {
            "byteLength" : 80716,
            "uri" : "data:application/octet-stream;base64,"
        }
    ]
}
